<svg xmlns="http://www.w3.org/2000/svg" enable-background="new 0 0 1000 1000" viewBox="0 0 1000 1000"><path fill="#fbbc05" d="M0 0h1000v1000H0z" class="colorfc8e22 svgShape"/><path fill="#353535" d="M753.077 683.991H285.668c-8.284 0-15-6.716-15-15 0-8.284 6.716-15 15-15h467.409c8.284 0 15 6.716 15 15 0 8.284-6.716 15-15 15z" class="color353535 svgShape" opacity=".34"/><path fill="#f7eccb" d="M611.706 622.699h-236c-9.941 0-18-8.059-18-18V299.866c0-9.941 8.059-18 18-18h236c9.941 0 18 8.059 18 18v304.833c0 9.941-8.059 18-18 18z" class="colorf7e4cb svgShape"/><path fill="#e0d2aa" d="M611.706 622.699h-236c-9.941 0-18-8.059-18-18V299.866c0-9.941 8.059-18 18-18h236c9.941 0 18 8.059 18 18v304.833c0 9.941-8.059 18-18 18z" class="colore0c5aa svgShape"/><path fill="#f7eccb" d="M369.706 589.949v-280c0-5.661 4.589-10.25 10.25-10.25h227.5c5.661 0 10.25 4.589 10.25 10.25v280c0 5.661-4.589 10.25-10.25 10.25h-227.5c-5.661 0-10.25-4.589-10.25-10.25z" class="colorf7e4cb svgShape"/><path fill="none" stroke="#353535" stroke-linecap="round" stroke-linejoin="round" stroke-miterlimit="10" stroke-width="6" d="M611.706 622.699h-236c-9.941 0-18-8.059-18-18V299.866c0-9.941 8.059-18 18-18h236c9.941 0 18 8.059 18 18v304.833c0 9.941-8.059 18-18 18z" class="colorStroke353535 svgStroke"/><path fill="#e0d2aa" d="M394.395 498.662c-5.351 0-9.689-4.338-9.689-9.689V326.351c0-5.351 4.338-9.689 9.689-9.689h198.623c5.351 0 9.689 4.338 9.689 9.689v162.623c0 5.351-4.338 9.689-9.689 9.689H394.395z" class="colore0c5aa svgShape"/><path fill="#353535" d="M412.387 488.127c-9.525 0-17.247-7.722-17.247-17.247V344.444c0-9.525 7.722-17.247 17.247-17.247h162.638c9.525 0 17.247 7.722 17.247 17.247V470.88c0 9.525-7.722 17.247-17.247 17.247H412.387z" class="color353535 svgShape"/><path fill="#282828" d="M575.025 327.197h-20.22a55.97 55.97 0 0 1 5.467 24.2c0 57.841-46.89 104.731-104.731 104.731H419.34a55.984 55.984 0 0 1-24.2-5.467v20.22c0 9.525 7.722 17.247 17.247 17.247h162.638c9.525 0 17.247-7.722 17.247-17.247V344.444c0-9.526-7.721-17.247-17.247-17.247z" class="color282828 svgShape" opacity=".3"/><path fill="#e0d2aa" d="M564.206 539.741v-3.125h-68.75v-12h68.75v-3.125c0-1.036.839-1.875 1.875-1.875h36.25c1.036 0 1.875.839 1.875 1.875v18.25a1.874 1.874 0 0 1-1.875 1.875h-36.25a1.876 1.876 0 0 1-1.875-1.875z" class="colore0c5aa svgShape"/><path fill="#353535" d="M594.664 527.616h4.292v6h-4.292z" class="color353535 svgShape"/><path fill="none" stroke="#353535" stroke-linecap="round" stroke-linejoin="round" stroke-miterlimit="10" stroke-width="2" d="M412.84 575.866h-19.4a1.884 1.884 0 0 1-1.884-1.884v-19.399c0-1.04.843-1.884 1.884-1.884h19.399c1.04 0 1.884.843 1.884 1.884v19.399c0 1.04-.843 1.884-1.883 1.884z" class="colorStroke353535 svgStroke"/><path fill="#e1e7f2" d="M658.37 668.991c0-9.941 10.521-18 23.5-18s23.5 8.059 23.5 18h-47z" class="colorf2ebe1 svgShape"/><path fill="none" stroke="#353535" stroke-linecap="round" stroke-linejoin="round" stroke-miterlimit="10" stroke-width="6" d="M658.37 668.991c0-9.941 10.521-18 23.5-18s23.5 8.059 23.5 18h-47z" class="colorStroke353535 svgStroke"/><path fill="#e0d2aa" d="M374.706 623.949h238v24h-238z" class="colore0c5aa svgShape"/><path fill="#c68a85" d="M374.706 623.949h238v9.917h-238z" class="colorc6a485 svgShape"/><path fill="none" stroke="#353535" stroke-linecap="round" stroke-linejoin="round" stroke-miterlimit="10" stroke-width="6" d="M374.706 623.949h238v24h-238z" class="colorStroke353535 svgStroke"/><path fill="#e0d2aa" d="M417.706 638.991h152v12h-152zM607.706 638.991h20v12h-20zM578.706 638.991h20v12h-20zM388.706 638.991h20v12h-20zM359.706 638.991h20v12h-20z" class="colore0c5aa svgShape"/><path fill="#f7eccb" d="M339.547 650.991h308.319v18H339.547z" class="colorf7e4cb svgShape"/><path fill="none" stroke="#353535" stroke-linecap="round" stroke-linejoin="round" stroke-miterlimit="10" stroke-width="6" d="M339.547 650.991h308.319v18H339.547zM417.706 638.991h152v12h-152zM607.706 638.991h20v12h-20zM578.706 638.991h20v12h-20zM388.706 638.991h20v12h-20zM359.706 638.991h20v12h-20z" class="colorStroke353535 svgStroke"/><path fill="#cfab42" d="M405.262 562.491a5.94 5.94 0 0 1-1.792-3.148h-6.278a7.696 7.696 0 0 0-1.568 3.148h9.638z" class="colorcf9742 svgShape"/><path fill="#34a853" d="M403.344 558.12c0-.537.078-1.055.211-1.55-.138-.007-.274-.021-.414-.021a7.717 7.717 0 0 0-5.948 2.793h6.278a5.925 5.925 0 0 1-.127-1.222z" class="color6e9546 svgShape"/><path fill="#4d835b" d="M397.248 569.283h11.784a7.713 7.713 0 0 0 1.608-3.148h-15a7.7 7.7 0 0 0 1.608 3.148z" class="color7c4d83 svgShape"/><path fill="#4285f4" d="M403.14 572.015a7.71 7.71 0 0 0 5.892-2.732h-11.784a7.71 7.71 0 0 0 5.892 2.732z" class="color4d8db9 svgShape"/><path fill="#ea4335" d="M395.407 564.282c0 .64.086 1.258.233 1.852h15a7.752 7.752 0 0 0 .233-1.852c0-.14-.014-.276-.021-.414a5.96 5.96 0 0 1-1.55.211 5.928 5.928 0 0 1-4.04-1.588h-9.638a7.724 7.724 0 0 0-.217 1.791z" class="colorcb6757 svgShape"/><path fill="none" stroke="#fff" stroke-linecap="round" stroke-linejoin="round" stroke-miterlimit="10" stroke-width="8" d="M423.206 348.199h16.127M456 348.199h57.373" class="colorStrokeffffff svgStroke"/><path fill="#353535" d="M598.956 529.583h-31.375v-4.759c0-1.036.839-1.875 1.875-1.875h27.625c1.036 0 1.875.839 1.875 1.875v4.759zM597.081 538.282h-27.625a1.874 1.874 0 0 1-1.875-1.875v-5.792h31.375v5.792a1.874 1.874 0 0 1-1.875 1.875z" class="color353535 svgShape"/><path fill="#282828" d="M595.081 533.616h-94.583a.958.958 0 0 1-.958-.958v-4.083c0-.529.429-.958.958-.958h94.583c.529 0 .958.429.958.958v4.083a.958.958 0 0 1-.958.958z" class="color282828 svgShape"/></svg>