<?xml version="1.0" standalone="no"?>
<!DOCTYPE svg PUBLIC "-//W3C//DTD SVG 20010904//EN"
 "http://www.w3.org/TR/2001/REC-SVG-20010904/DTD/svg10.dtd">
<svg version="1.0" xmlns="http://www.w3.org/2000/svg"
 width="720.000000pt" height="720.000000pt" viewBox="0 0 720.000000 720.000000"
 preserveAspectRatio="xMidYMid meet">
<metadata>
Created by potrace 1.14, written by Peter Selinger 2001-2017
</metadata>
<g transform="translate(0.000000,720.000000) scale(0.100000,-0.100000)"
fill="#000000" stroke="none">
<path d="M5259 6313 c5 -10 5 -26 0 -40 -5 -13 -6 -23 -3 -23 2 0 -1 -10 -7
-22 -11 -21 -11 -22 4 -9 10 8 17 9 17 3 0 -6 -8 -16 -17 -21 -12 -7 -14 -10
-4 -11 11 0 11 -3 0 -17 -10 -11 -10 -14 -1 -9 15 9 18 -12 8 -68 -2 -14 -8
-31 -12 -38 -6 -9 -3 -9 9 1 10 8 17 9 17 3 0 -6 -8 -16 -17 -21 -12 -7 -14
-10 -4 -11 11 0 11 -3 0 -17 -10 -11 -10 -14 -1 -9 15 9 18 -12 8 -68 -2 -14
-8 -31 -12 -38 -6 -9 -3 -9 9 1 10 8 17 9 17 3 0 -6 -8 -16 -17 -21 -12 -7
-14 -10 -4 -11 11 0 11 -3 0 -17 -10 -11 -10 -14 -1 -9 15 9 18 -12 8 -68 -2
-14 -8 -31 -12 -38 -6 -9 -3 -9 9 1 10 8 17 9 17 3 0 -6 -8 -16 -17 -21 -12
-7 -14 -10 -4 -11 11 0 11 -3 0 -17 -10 -11 -10 -14 -1 -9 15 9 18 -12 8 -68
-2 -14 -8 -31 -12 -38 -6 -9 -3 -9 9 1 10 8 17 9 17 3 0 -6 -8 -16 -17 -21
-12 -7 -14 -10 -4 -11 10 0 11 -3 2 -14 -9 -11 -9 -16 0 -22 8 -5 9 -3 4 6 -5
9 -4 11 4 6 6 -4 8 -13 4 -19 -4 -7 -9 -23 -10 -37 -3 -20 -1 -22 7 -10 6 9
10 10 10 3 0 -6 -5 -15 -10 -18 -8 -5 -7 -12 2 -23 8 -9 8 -13 2 -9 -7 4 -15
0 -18 -9 -4 -10 -2 -13 7 -9 6 4 4 0 -5 -8 -10 -8 -15 -17 -11 -21 4 -4 0 -4
-10 0 -13 5 -16 2 -10 -12 5 -13 3 -15 -7 -9 -10 6 -12 4 -7 -8 4 -12 2 -14
-10 -10 -11 4 -14 2 -9 -5 6 -11 -5 -16 -26 -13 -4 0 -5 -5 -2 -13 3 -8 0 -17
-7 -22 -8 -5 -10 -3 -4 6 5 9 4 11 -3 6 -7 -4 -12 -14 -12 -23 0 -9 -6 -13
-14 -10 -20 8 -28 -4 -14 -20 8 -11 7 -12 -5 -7 -12 4 -20 -1 -26 -17 -10 -27
-46 -60 -55 -52 -3 4 -6 -1 -6 -9 0 -16 -27 -33 -44 -29 -5 1 -3 -5 4 -14 11
-14 11 -16 -1 -13 -8 2 -13 -2 -12 -9 2 -8 -4 -10 -14 -6 -11 4 -14 3 -9 -5 4
-7 2 -13 -3 -13 -6 -1 -17 -2 -23 -3 -7 0 -14 -11 -16 -24 -3 -16 -8 -22 -19
-18 -11 5 -14 1 -10 -13 3 -12 -1 -18 -12 -17 -9 0 -15 -5 -14 -11 2 -7 -2
-13 -8 -13 -16 0 -39 -26 -31 -35 4 -5 -1 -5 -12 -1 -14 5 -17 2 -12 -9 5 -14
-6 -20 -28 -16 -5 1 -3 -5 4 -14 11 -13 10 -14 -5 -9 -14 6 -16 4 -10 -6 6
-10 4 -12 -9 -7 -9 4 -15 3 -12 -2 3 -4 -2 -17 -10 -27 -9 -10 -13 -14 -10 -7
4 6 1 15 -5 19 -7 4 -9 3 -5 -4 3 -6 2 -13 -4 -17 -5 -3 -10 -11 -10 -16 0 -6
5 -7 12 -3 7 4 8 3 4 -5 -6 -9 -11 -9 -22 0 -11 9 -14 7 -14 -11 0 -15 -5 -20
-14 -17 -19 8 -28 -3 -16 -19 8 -9 6 -12 -7 -10 -12 0 -17 -5 -17 -17 2 -15
-1 -16 -14 -5 -13 11 -15 10 -10 -9 4 -17 2 -20 -10 -16 -12 5 -14 2 -9 -12 7
-16 5 -16 -10 -4 -15 12 -16 12 -10 -3 3 -10 2 -18 -3 -18 -13 0 -70 -57 -70
-69 0 -6 -8 -7 -17 -4 -16 6 -17 5 -3 -12 9 -11 10 -16 3 -11 -7 4 -23 0 -35
-8 -12 -9 -18 -16 -12 -16 5 0 16 6 24 13 8 6 6 2 -4 -10 -10 -12 -21 -22 -25
-21 -19 2 -24 -4 -11 -12 13 -8 12 -10 -5 -11 -11 -1 -23 -1 -28 0 -4 0 -6 -2
-6 -6 3 -20 -2 -34 -11 -28 -5 3 -10 -1 -10 -9 0 -14 -18 -21 -42 -17 -4 0 -4
-7 -1 -16 5 -12 3 -14 -8 -8 -8 4 -11 5 -7 0 11 -12 -12 -47 -27 -41 -9 3 -12
0 -9 -9 3 -7 -3 -16 -15 -20 -13 -4 -18 -11 -14 -22 4 -11 2 -14 -5 -9 -7 4
-20 2 -29 -4 -17 -11 -17 -11 0 -6 27 8 20 -3 -9 -14 -17 -7 -24 -15 -20 -25
6 -16 -14 -16 -27 0 -4 6 -5 -2 -3 -17 4 -25 3 -27 -15 -17 -19 10 -20 9 -8
-13 11 -21 11 -22 -5 -9 -14 12 -16 12 -10 -3 4 -11 1 -16 -12 -16 -9 0 -15
-3 -11 -6 8 -9 -53 -74 -70 -74 -8 0 -11 -4 -8 -10 3 -5 -1 -10 -10 -10 -11 0
-15 -5 -11 -16 3 -8 2 -12 -4 -9 -13 8 -54 -31 -46 -43 4 -6 -2 -8 -14 -5 -12
3 -20 2 -19 -3 4 -22 -2 -33 -15 -28 -8 3 -17 0 -22 -7 -5 -8 -3 -10 5 -4 10
5 10 3 0 -13 -7 -11 -19 -18 -26 -15 -9 4 -11 0 -7 -13 4 -11 4 -16 0 -12 -10
9 -55 -34 -48 -46 3 -5 -5 -7 -17 -3 -19 5 -20 3 -9 -11 11 -13 11 -15 -4 -9
-10 3 -17 3 -17 -1 3 -18 -2 -33 -8 -29 -11 7 -33 -19 -25 -29 4 -4 -1 -4 -12
0 -14 5 -17 2 -12 -9 4 -10 -1 -15 -16 -15 -18 0 -19 -2 -7 -17 10 -12 10 -15
1 -9 -13 8 -45 -17 -35 -28 4 -3 -2 -6 -11 -6 -12 0 -16 -5 -13 -14 4 -10 1
-13 -7 -10 -7 3 -19 -3 -27 -13 -13 -17 -13 -17 6 -4 11 8 2 -2 -19 -22 -22
-20 -43 -34 -48 -31 -4 3 -5 -3 -1 -12 5 -14 2 -16 -15 -12 -19 5 -20 4 -10
-15 10 -20 10 -21 -6 -8 -9 8 -16 10 -15 5 4 -21 -2 -34 -16 -34 -8 0 -14 -6
-13 -12 2 -7 -5 -12 -15 -11 -12 0 -16 -4 -13 -13 3 -8 -1 -14 -9 -14 -8 0
-15 -7 -15 -16 0 -9 -5 -12 -12 -8 -7 5 -9 2 -5 -9 4 -12 2 -14 -10 -10 -12 5
-15 2 -10 -10 4 -12 2 -14 -10 -10 -13 5 -15 2 -10 -11 6 -14 3 -17 -9 -12
-12 5 -15 2 -10 -10 6 -14 4 -15 -9 -4 -13 11 -16 11 -13 -1 2 -8 -2 -13 -9
-12 -7 2 -10 -3 -7 -11 3 -8 -4 -16 -17 -19 -15 -4 -20 -11 -15 -23 5 -14 4
-15 -9 -4 -13 10 -15 9 -15 -10 0 -16 -4 -20 -15 -16 -10 4 -15 -1 -15 -14 0
-18 -10 -25 -32 -21 -5 0 -8 -6 -8 -14 0 -8 -6 -15 -14 -15 -9 0 -13 -7 -11
-19 3 -15 -1 -18 -12 -14 -11 4 -14 2 -9 -5 4 -7 1 -12 -8 -12 -14 0 -20 -11
-17 -32 0 -4 -6 -5 -15 -1 -10 4 -17 -2 -21 -16 -4 -15 -11 -20 -21 -16 -12 4
-13 3 -2 -10 11 -13 10 -14 -5 -9 -14 6 -16 4 -10 -6 6 -10 4 -12 -8 -7 -9 3
-16 3 -16 -1 4 -23 -3 -34 -17 -28 -14 5 -15 4 -4 -9 11 -13 10 -14 -5 -8 -14
5 -17 3 -12 -9 4 -11 0 -15 -11 -13 -25 4 -35 -5 -22 -20 8 -10 6 -13 -7 -11
-10 0 -17 -5 -15 -13 2 -8 -3 -11 -11 -8 -15 6 -41 -29 -32 -43 4 -6 -1 -7
-11 -3 -13 5 -16 3 -11 -10 4 -11 2 -14 -7 -11 -7 3 -16 -2 -20 -11 -3 -10
-11 -13 -18 -9 -9 5 -8 2 1 -9 12 -15 12 -17 -4 -10 -15 5 -17 3 -12 -12 6
-15 5 -16 -8 -5 -13 10 -15 9 -15 -8 0 -12 -8 -22 -21 -25 -14 -4 -20 -11 -16
-21 4 -10 0 -14 -13 -11 -11 2 -17 -1 -15 -8 3 -7 -16 -32 -42 -57 -25 -25
-43 -39 -39 -32 4 6 2 12 -3 12 -6 0 -11 -9 -11 -21 0 -11 -4 -18 -8 -15 -5 3
-15 -6 -22 -20 -8 -14 -20 -22 -27 -19 -8 2 -11 0 -8 -5 4 -6 -3 -22 -14 -36
-12 -15 -21 -21 -21 -15 0 7 -5 9 -10 6 -6 -4 -8 -11 -5 -16 6 -8 -8 -13 -27
-10 -4 0 -5 -5 -2 -13 3 -7 -3 -19 -13 -27 -16 -13 -17 -12 -5 3 9 11 10 18 2
23 -6 4 -10 3 -9 -2 3 -19 -14 -52 -24 -46 -6 4 -8 0 -4 -10 4 -12 2 -14 -10
-10 -12 5 -14 3 -8 -7 6 -10 4 -12 -8 -7 -9 3 -19 1 -23 -5 -4 -7 -3 -8 4 -4
7 4 12 2 12 -3 0 -10 -14 -15 -32 -12 -4 0 -11 -11 -14 -25 -4 -16 -11 -23
-21 -20 -8 3 -11 2 -8 -3 3 -5 1 -12 -5 -16 -6 -4 -8 -11 -5 -16 3 -5 -2 -6
-11 -2 -12 4 -15 3 -10 -5 4 -7 1 -12 -8 -12 -8 0 -18 -9 -21 -20 -4 -11 -11
-18 -16 -15 -5 4 -9 -1 -9 -9 0 -9 -5 -16 -11 -16 -5 0 -7 5 -3 12 4 7 3 8 -4
4 -7 -4 -12 -14 -12 -21 0 -8 -9 -19 -21 -25 -11 -7 -18 -18 -15 -25 3 -9 0
-12 -10 -8 -8 3 -14 -1 -14 -10 0 -8 -8 -21 -17 -28 -16 -13 -17 -12 -4 4 8 9
11 20 9 23 -3 3 -12 -9 -19 -26 -8 -18 -19 -28 -27 -25 -8 3 -18 -8 -26 -25
-7 -17 -15 -27 -19 -23 -4 3 -7 1 -7 -6 0 -7 -5 -9 -13 -5 -7 5 -7 2 2 -10 8
-9 10 -16 5 -15 -22 4 -34 -2 -34 -17 0 -8 -4 -12 -10 -9 -5 3 -10 -1 -10 -10
0 -9 -4 -14 -9 -11 -4 3 -13 -6 -20 -20 -6 -14 -16 -22 -21 -19 -6 3 -13 -1
-16 -10 -4 -9 -12 -14 -20 -11 -7 3 -15 0 -18 -7 -2 -7 -5 -3 -5 8 -1 17 -3
17 -11 5 -5 -8 -10 -11 -10 -6 0 5 -8 2 -17 -5 -9 -8 -14 -9 -10 -3 5 8 -7 12
-36 11 -24 0 -48 3 -55 6 -6 4 -14 2 -18 -4 -4 -7 -3 -9 4 -5 6 3 13 3 16 -2
2 -4 -6 -8 -20 -8 -17 0 -23 4 -19 14 4 12 3 13 -10 2 -12 -10 -15 -10 -15 1
0 8 -6 6 -16 -7 -8 -10 -13 -13 -9 -6 4 7 0 12 -10 12 -9 0 -14 -4 -10 -9 10
-17 -40 -2 -54 16 -13 17 -13 17 -8 1 3 -10 2 -20 -3 -23 -6 -4 -10 0 -10 7 0
10 -2 10 -9 -1 -6 -9 -10 -10 -12 -2 -3 9 -12 9 -33 1 -25 -9 -28 -8 -22 7 6
17 5 17 -8 0 -8 -11 -15 -14 -18 -7 -2 8 -11 8 -32 0 -25 -9 -27 -8 -22 6 5
14 4 15 -9 4 -8 -7 -15 -9 -15 -5 0 4 -8 1 -17 -6 -9 -8 -14 -9 -10 -3 5 8 -7
12 -36 11 -24 0 -48 3 -55 6 -6 4 -14 2 -18 -4 -4 -7 -3 -9 4 -5 6 3 13 3 16
-2 2 -4 -6 -8 -20 -8 -17 0 -23 4 -19 14 4 12 3 13 -10 2 -12 -10 -15 -10 -15
1 -1 10 -4 8 -11 -3 -5 -10 -15 -18 -22 -18 -7 0 -6 4 3 10 13 8 13 10 -2 10
-9 0 -20 -5 -23 -10 -9 -15 -47 8 -39 23 4 7 3 8 -2 4 -5 -5 -10 -13 -10 -18
-3 -22 -5 -23 -14 -9 -9 13 -10 13 -10 0 0 -12 -2 -12 -8 -2 -7 10 -15 10 -36
2 -24 -9 -27 -8 -22 5 3 9 2 13 -4 10 -6 -4 -10 -199 -10 -541 l0 -534 514 0
c283 0 522 3 530 6 13 5 14 9 5 20 -10 12 -8 13 7 7 15 -5 17 -4 8 8 -18 24
-26 51 -11 43 8 -5 7 -2 -2 9 -12 15 -11 17 5 18 18 0 18 1 -1 9 -11 5 -14 9
-6 9 11 1 11 4 1 16 -11 13 -10 14 6 8 15 -5 17 -4 8 8 -18 24 -26 51 -11 43
8 -5 7 -2 -2 9 -12 15 -11 17 5 18 18 0 18 1 -1 9 -11 5 -14 9 -6 9 11 1 11 4
1 16 -11 13 -10 14 6 8 15 -5 17 -4 8 8 -18 24 -26 51 -11 43 8 -5 7 -2 -2 9
-12 15 -11 17 5 18 18 0 18 1 -1 9 -11 5 -14 9 -6 9 11 1 11 4 1 16 -11 13
-10 14 6 8 15 -5 17 -4 8 8 -18 24 -26 51 -11 43 8 -5 7 -2 -2 9 -12 15 -11
17 5 17 15 0 16 2 5 9 -9 6 -11 18 -7 35 4 18 3 25 -6 22 -7 -1 -10 -1 -5 1 4
3 4 10 1 15 -4 7 -2 8 4 4 15 -9 15 -5 2 29 -8 20 -7 24 3 19 8 -5 8 -2 -2 9
-12 15 -11 17 5 18 16 0 16 2 -4 9 -26 11 -30 23 -4 13 15 -6 15 -5 3 10 -12
16 -12 17 5 10 15 -5 17 -4 8 8 -18 24 -26 51 -11 43 8 -5 7 -2 -2 9 -12 15
-11 17 5 18 16 0 16 2 -4 9 -26 11 -30 23 -4 13 15 -6 15 -5 3 10 -12 16 -12
17 5 10 15 -5 17 -4 8 8 -18 24 -26 51 -11 43 8 -5 7 -2 -2 9 -12 15 -11 17 5
17 16 1 15 3 -6 16 -14 8 -17 13 -7 10 9 -3 17 -1 17 4 0 6 -5 10 -11 10 -5 0
-7 5 -4 10 4 6 12 7 18 4 9 -5 9 -4 0 6 -9 10 -9 16 2 26 17 17 29 18 19 2 -4
-7 -3 -8 5 -4 9 6 9 11 -1 24 -7 9 -8 13 -2 9 7 -4 14 2 17 13 3 12 14 20 29
21 12 0 17 3 11 6 -14 5 -18 24 -5 22 23 -4 34 3 28 17 -6 15 -4 15 11 3 10
-8 14 -9 10 -2 -5 7 3 18 20 27 15 8 22 15 14 16 -15 0 -6 15 9 15 13 0 60 55
57 68 -1 7 7 12 18 12 11 1 19 7 17 14 -2 9 3 11 15 7 9 -4 14 -4 11 0 -10 10
11 46 23 39 5 -4 9 2 9 11 0 10 3 14 7 11 3 -4 16 5 29 18 13 14 28 25 34 25
5 0 10 5 10 11 0 5 -5 7 -12 3 -7 -5 -8 -3 -4 5 5 7 10 10 13 7 9 -9 39 29 34
44 -4 13 -3 13 14 0 11 -9 16 -10 11 -2 -4 7 -2 12 4 12 7 0 9 7 6 16 -6 15
-4 15 11 3 9 -8 14 -9 12 -4 -7 12 27 46 36 37 3 -4 3 1 0 10 -4 9 -1 19 6 24
7 4 10 3 6 -3 -3 -5 0 -10 8 -10 8 0 12 4 9 9 -7 11 21 50 29 41 4 -3 7 1 7
10 0 9 5 19 12 23 7 5 8 3 3 -7 -8 -12 -6 -12 9 0 9 8 14 21 11 29 -5 13 -3
13 12 1 10 -7 15 -10 11 -5 -9 11 14 35 27 28 6 -3 4 2 -3 11 -12 14 -11 16 7
12 14 -3 19 0 15 7 -5 7 -2 9 8 5 10 -3 15 0 14 11 0 9 4 16 11 15 6 -2 15 6
18 17 4 11 10 18 15 15 4 -3 7 3 6 12 0 9 6 18 14 20 13 4 13 3 0 -7 -13 -10
-13 -11 0 -7 8 2 14 12 12 22 -2 9 1 14 6 11 5 -3 16 2 23 11 12 14 12 16 0 8
-10 -5 -12 -4 -7 4 4 7 17 9 29 6 16 -5 18 -4 8 3 -17 12 -4 35 16 28 8 -3 12
-2 9 3 -7 10 40 52 49 43 3 -4 3 1 -1 11 -4 11 0 19 12 23 29 11 54 36 47 47
-4 6 2 8 16 4 18 -4 20 -3 10 9 -9 11 -8 14 5 14 11 0 14 5 10 12 -5 7 -2 9 9
5 11 -4 14 -2 11 7 -3 8 0 17 7 22 8 5 10 3 4 -7 -4 -8 5 1 22 18 16 18 34 30
39 25 4 -4 2 1 -5 11 -12 15 -12 17 3 11 12 -5 19 0 23 15 3 11 10 21 15 21
15 0 38 27 30 36 -4 5 1 2 11 -5 15 -12 17 -12 11 4 -6 14 -4 16 6 10 10 -6
12 -4 6 10 -5 15 -4 16 8 6 11 -9 14 -8 12 6 0 10 5 17 11 16 7 -2 12 3 10 10
-1 6 6 11 15 9 12 -2 16 3 13 18 -2 11 0 18 6 15 5 -4 9 -1 9 5 0 6 5 8 13 4
9 -6 9 -4 -1 8 -11 13 -10 16 5 14 10 0 17 5 16 12 -2 6 7 12 20 13 12 0 16 3
9 6 -10 4 -8 9 7 20 12 8 26 11 33 7 6 -4 8 -3 4 4 -8 13 52 74 65 67 5 -4 6
1 3 9 -4 11 2 19 17 25 13 5 18 10 11 10 -7 1 -10 6 -7 11 4 6 11 8 16 5 5 -4
9 1 9 9 0 9 6 16 13 16 19 0 89 75 80 85 -5 4 0 5 10 2 10 -4 16 -3 13 2 -3 4
2 17 10 27 9 10 12 12 8 4 -7 -13 -5 -13 9 -1 9 7 14 18 11 25 -3 6 0 4 8 -4
7 -8 19 -16 26 -18 18 -4 62 -49 55 -56 -4 -3 1 -6 10 -6 9 0 17 -6 17 -14 0
-8 5 -18 12 -22 7 -5 8 -3 3 7 -5 8 1 6 13 -5 12 -10 19 -23 15 -29 -4 -6 0
-8 11 -4 10 4 15 3 11 -3 -3 -6 1 -10 9 -10 10 0 13 -7 11 -21 -3 -17 -1 -19
10 -9 10 8 15 8 21 -1 4 -8 3 -9 -4 -5 -7 4 -12 3 -12 -3 0 -5 9 -13 20 -16
11 -4 18 -11 15 -16 -4 -5 1 -9 10 -9 11 0 15 -5 12 -15 -4 -8 -1 -17 5 -21 7
-4 8 -3 4 4 -4 7 -2 12 3 12 6 0 11 -7 11 -16 0 -8 5 -12 10 -9 6 3 10 -1 10
-10 0 -9 5 -13 10 -10 6 3 10 -1 10 -10 0 -9 3 -14 8 -12 4 3 13 -1 20 -9 7
-8 9 -14 5 -15 -4 0 2 -4 14 -9 16 -7 21 -14 16 -27 -6 -15 -4 -16 9 -5 11 9
18 10 23 2 3 -5 0 -10 -7 -11 -7 0 -2 -5 11 -10 16 -6 21 -14 17 -25 -6 -15
-4 -15 11 -3 10 8 14 9 10 2 -5 -7 1 -17 13 -23 12 -6 25 -22 30 -36 5 -13 16
-24 25 -24 9 0 15 -9 16 -22 0 -13 3 -18 6 -11 3 8 12 5 27 -10 13 -12 21 -25
19 -29 -2 -5 1 -8 7 -8 15 0 41 -26 33 -34 -4 -3 1 -6 10 -6 10 0 17 -7 17
-16 0 -8 5 -12 10 -9 6 3 10 -1 10 -9 0 -8 9 -17 19 -21 11 -3 23 -15 26 -26
4 -10 13 -19 21 -19 8 0 14 -7 14 -15 0 -8 6 -14 13 -12 6 1 11 -5 9 -15 -2
-12 3 -15 20 -11 17 3 19 2 9 -5 -11 -8 -9 -11 8 -17 12 -3 19 -11 16 -16 -4
-5 1 -9 9 -9 8 0 18 -9 21 -21 4 -11 18 -25 31 -31 16 -7 23 -17 19 -26 -5
-13 -3 -13 12 -1 11 9 14 10 9 1 -4 -7 -1 -15 8 -18 9 -3 16 -13 16 -21 0 -10
6 -13 17 -9 10 4 15 4 11 1 -3 -4 8 -20 24 -36 17 -16 27 -29 23 -29 -5 0 0
-6 10 -14 11 -8 23 -12 27 -10 4 3 5 -2 2 -10 -6 -16 5 -21 36 -16 12 1 12 -1
3 -11 -10 -10 -8 -16 9 -31 12 -10 25 -18 30 -18 4 0 8 -7 8 -15 0 -8 4 -15 8
-15 15 0 52 -37 45 -44 -3 -3 1 -6 10 -6 10 0 17 -7 17 -15 0 -8 3 -14 8 -12
4 1 8 -2 9 -6 3 -13 37 -36 45 -31 4 3 10 -6 14 -20 4 -18 11 -23 26 -21 16 3
18 2 8 -10 -10 -11 -7 -15 13 -20 19 -5 24 -12 22 -27 -3 -16 -1 -17 10 -8 10
8 15 8 21 -1 4 -8 3 -9 -4 -5 -7 4 -12 2 -12 -3 0 -6 4 -11 8 -11 5 0 17 -7
28 -16 10 -8 12 -12 4 -8 -13 7 -13 5 -2 -9 8 -9 19 -15 25 -14 7 1 12 -8 11
-20 0 -18 2 -20 13 -12 12 11 17 6 14 -13 0 -4 11 -11 25 -14 19 -5 24 -12 21
-25 -3 -11 -1 -16 4 -13 5 3 24 -9 42 -27 18 -18 24 -27 15 -20 -10 7 -18 11
-18 9 0 -9 37 -48 41 -43 3 2 5 -4 5 -15 0 -14 -4 -16 -12 -9 -9 8 -11 5 -7
-10 3 -12 10 -21 15 -21 5 0 6 -5 3 -10 -4 -6 -12 -8 -18 -4 -7 3 -4 -1 5 -9
22 -17 11 -32 -11 -14 -14 10 -14 10 -4 -4 7 -9 9 -20 5 -24 -4 -5 -2 -5 4 -2
14 8 27 -20 14 -28 -6 -4 -10 -14 -10 -23 0 -15 2 -15 11 -2 9 12 10 12 5 -3
-3 -10 -6 -21 -6 -23 0 -3 -4 -3 -9 0 -4 3 -6 -6 -3 -20 3 -19 7 -22 13 -12 5
7 9 8 9 3 0 -6 -5 -16 -12 -23 -6 -6 -13 -22 -14 -34 -2 -13 0 -17 2 -10 8 18
20 14 20 -7 0 -11 -4 -17 -8 -15 -12 8 -10 -10 3 -23 8 -8 7 -13 -2 -18 -8 -6
-10 -4 -4 5 5 8 4 11 -3 6 -15 -9 -3 -38 12 -29 6 3 6 1 -1 -8 -15 -15 -17
-33 -4 -25 11 7 8 -21 -4 -31 -4 -4 -5 -2 -1 4 4 7 2 13 -4 13 -7 0 -9 -7 -6
-16 3 -9 6 -23 6 -32 0 -15 2 -15 10 -2 5 8 10 10 10 5 0 -6 -5 -16 -12 -23
-6 -6 -12 -21 -13 -32 -1 -15 1 -17 12 -9 9 8 13 8 13 1 0 -6 -8 -16 -17 -21
-14 -8 -14 -10 -4 -11 12 0 12 -3 3 -12 -7 -7 -12 -17 -12 -23 0 -5 4 -4 9 3
6 10 10 9 14 -7 3 -12 1 -24 -4 -27 -5 -3 -9 -13 -9 -22 0 -15 2 -15 11 -2 9
12 10 12 5 -3 -3 -10 -6 -21 -6 -23 0 -3 -4 -3 -9 0 -4 3 -6 -6 -3 -20 3 -19
7 -22 13 -12 5 7 9 8 9 3 0 -6 -5 -16 -12 -23 -6 -6 -13 -22 -14 -34 -2 -13 0
-17 2 -10 8 18 20 14 20 -7 0 -11 -4 -17 -8 -15 -12 8 -10 -10 3 -23 8 -8 7
-13 -2 -18 -8 -6 -10 -4 -4 5 5 8 4 11 -3 6 -15 -9 -3 -38 12 -29 6 3 6 1 -1
-8 -14 -14 -18 -33 -5 -25 4 2 9 -4 9 -15 1 -10 -3 -19 -8 -19 -6 0 -7 5 -4
10 3 6 1 10 -4 10 -14 0 -14 -17 -1 -25 5 -3 6 -13 3 -22 -5 -12 -3 -14 8 -8
11 7 12 6 2 -7 -7 -8 -10 -18 -6 -21 3 -4 242 -7 531 -7 506 0 524 1 519 19
-2 10 0 26 6 36 7 13 6 16 -2 11 -15 -10 -14 7 2 23 10 11 10 13 0 7 -7 -4
-13 -3 -13 1 0 5 6 15 13 22 10 11 10 13 0 7 -16 -9 -17 6 -2 21 8 8 8 13 0
17 -6 4 -11 12 -11 17 0 6 4 8 8 5 5 -3 9 1 9 9 0 8 -4 12 -9 9 -4 -3 -8 -1
-8 5 0 5 4 12 10 16 5 3 6 15 1 28 -6 14 -5 30 1 41 8 14 7 17 -1 12 -14 -9
-14 7 0 21 8 8 7 13 -2 18 -8 6 -10 4 -4 -5 6 -9 4 -11 -5 -5 -10 6 -9 11 5
22 11 7 13 13 7 13 -7 0 -12 5 -12 11 0 5 4 8 8 5 5 -3 9 1 9 9 0 8 -4 12 -9
9 -4 -3 -8 -1 -8 5 0 5 4 12 10 16 5 3 6 16 2 28 -9 27 -8 70 3 87 5 9 4 11
-3 6 -16 -10 -15 7 1 23 10 11 10 13 0 7 -17 -9 -17 6 0 23 10 11 10 13 0 7
-16 -9 -17 6 -2 21 8 8 8 13 0 17 -6 4 -11 12 -11 17 0 6 4 8 8 5 5 -3 9 1 9
9 0 8 -4 12 -9 9 -4 -3 -8 -1 -8 5 0 5 4 12 10 16 5 3 6 15 1 28 -6 14 -5 30
1 41 8 14 7 17 -1 12 -14 -9 -14 7 0 21 8 8 7 13 -2 18 -8 6 -10 4 -4 -5 6 -9
4 -11 -5 -5 -10 6 -9 11 5 22 11 7 13 13 7 13 -7 0 -12 5 -12 11 0 5 4 8 8 5
5 -3 9 1 9 9 0 8 -4 12 -9 9 -4 -3 -8 -1 -8 5 0 5 4 12 10 16 5 3 6 16 2 28
-9 27 -8 70 3 87 6 9 4 11 -5 5 -9 -6 -12 -4 -8 6 3 8 -2 21 -11 29 -19 18
-14 18 -35 1 -9 -8 -20 -11 -23 -7 -4 4 -1 11 7 16 8 6 10 10 4 10 -5 0 -15
-5 -22 -12 -9 -9 -12 -9 -12 2 0 9 -5 8 -16 -6 -8 -10 -13 -13 -9 -6 4 7 0 12
-10 12 -9 0 -14 -4 -10 -9 10 -17 -40 -2 -54 16 -13 17 -13 17 -8 1 3 -10 2
-20 -3 -23 -6 -4 -10 0 -10 7 0 10 -2 10 -9 -1 -6 -9 -10 -10 -12 -2 -3 9 -12
9 -33 1 -25 -9 -28 -8 -22 7 6 17 5 17 -8 0 -8 -11 -15 -14 -18 -7 -2 8 -11 8
-32 0 -25 -9 -27 -8 -22 6 5 14 4 15 -9 4 -8 -7 -15 -9 -15 -5 0 4 -8 1 -17
-6 -9 -8 -14 -9 -10 -3 5 8 -7 12 -36 11 -24 0 -48 3 -55 6 -6 4 -14 2 -18 -4
-4 -7 -3 -9 4 -5 6 3 13 3 16 -2 2 -4 -6 -8 -20 -8 -17 0 -23 4 -19 14 4 12 3
13 -10 2 -12 -10 -15 -10 -15 1 0 8 -6 6 -16 -7 -8 -10 -13 -13 -9 -7 4 8 0
13 -10 13 -9 0 -14 -4 -10 -9 10 -17 -40 -2 -54 16 -13 17 -13 17 -8 1 3 -10
2 -20 -3 -23 -6 -4 -10 -1 -10 4 0 6 -5 11 -11 11 -5 0 -7 -6 -3 -12 5 -10 4
-10 -6 -1 -8 8 -20 9 -36 3 -19 -8 -24 -6 -24 6 0 8 -5 12 -10 9 -6 -4 -8 -10
-6 -14 3 -4 -1 -8 -9 -8 -8 0 -12 4 -9 9 7 11 -10 10 -22 -2 -11 -11 -71 36
-66 52 1 5 -2 7 -8 3 -5 -3 -10 -1 -10 5 0 6 -4 8 -10 5 -5 -3 -10 3 -10 15 0
12 -4 18 -10 15 -5 -3 -10 -1 -10 5 0 6 -5 8 -10 5 -6 -4 -9 -1 -8 7 2 7 -2
12 -9 11 -7 -2 -10 4 -7 12 4 10 0 15 -11 15 -9 0 -13 4 -10 10 3 6 -3 10 -15
10 -12 0 -18 5 -15 10 3 5 1 10 -5 10 -6 0 -8 5 -5 11 4 6 0 9 -11 7 -11 -2
-18 2 -17 10 2 6 -5 12 -15 12 -13 0 -14 2 -4 9 10 6 7 10 -12 15 -14 3 -25
10 -24 14 2 4 -10 19 -25 34 -15 15 -27 24 -27 21 0 -3 -6 0 -14 7 -8 6 -12
19 -9 27 4 11 2 14 -5 9 -7 -4 -12 -1 -12 8 0 8 -9 21 -20 29 -11 8 -17 18
-12 23 4 4 -2 2 -13 -6 -11 -8 -17 -10 -13 -6 4 5 -8 22 -27 39 -19 16 -32 33
-29 38 3 5 2 9 -3 8 -20 -3 -33 2 -30 14 1 6 -4 11 -12 9 -12 -3 -12 -1 0 14
9 12 9 15 2 10 -8 -4 -13 -2 -13 4 0 6 -4 8 -10 5 -5 -3 -10 -1 -10 4 0 6 -7
11 -17 11 -9 0 -14 3 -10 6 8 8 -36 53 -46 47 -4 -2 -7 -1 -6 4 4 21 -3 32
-21 38 -11 4 -17 11 -14 17 5 8 1 9 -11 4 -16 -6 -16 -4 -4 11 9 11 10 14 2 9
-8 -4 -23 3 -37 17 -14 14 -27 22 -30 19 -3 -3 -6 1 -6 8 0 18 -60 71 -72 63
-6 -3 -5 4 1 15 9 18 8 20 -7 17 -11 -2 -24 6 -32 18 -11 19 -11 21 1 12 8 -5
7 -3 -3 6 -9 9 -14 20 -10 25 4 5 -2 2 -13 -6 -11 -8 -17 -11 -14 -7 9 11
-109 129 -121 122 -14 -9 -12 9 3 24 6 8 7 11 1 8 -14 -8 -56 27 -46 38 4 5 2
5 -5 1 -13 -7 -55 32 -47 45 3 5 -3 6 -12 2 -10 -3 -15 -2 -13 3 6 11 -77 94
-86 86 -3 -3 -5 2 -5 12 0 9 -4 14 -10 11 -6 -3 -7 1 -4 9 3 9 1 16 -6 16 -6
0 -8 6 -4 13 6 10 4 10 -7 0 -17 -17 -30 -17 -23 0 2 7 -3 21 -12 32 -8 11
-12 14 -8 6 5 -10 3 -12 -5 -7 -7 5 -10 15 -6 23 5 14 3 14 -12 2 -11 -9 -14
-10 -9 -1 4 7 2 12 -4 12 -6 0 -8 5 -5 10 5 9 -7 14 -27 11 -4 0 -5 9 -3 20 3
17 1 19 -10 9 -10 -9 -15 -7 -20 9 -3 11 -15 23 -27 27 -16 5 -18 8 -7 15 10
6 8 9 -10 9 -19 0 -21 3 -11 15 10 12 8 14 -9 10 -15 -3 -18 0 -14 12 4 9 2
14 -3 11 -5 -4 -18 0 -29 8 -13 10 -15 14 -4 14 8 1 5 6 -9 13 -12 7 -19 16
-16 20 4 4 0 7 -9 7 -9 0 -17 5 -17 11 0 5 -5 7 -10 4 -6 -4 -10 -3 -9 2 4 21
-3 32 -21 38 -11 4 -17 11 -14 17 5 7 1 9 -9 5 -9 -3 -16 -3 -16 1 3 20 -2 25
-12 12 -9 -13 -10 -13 -8 0 3 27 -1 41 -9 36 -5 -3 -9 2 -9 10 0 9 6 13 14 10
8 -3 11 -2 8 3 -3 5 4 16 15 24 11 7 17 17 13 20 -3 4 1 7 11 7 9 0 15 4 12 9
-8 12 22 23 37 14 7 -3 9 -3 5 2 -4 4 -2 15 5 24 10 14 10 14 -3 6 -14 -9 1 5
36 34 7 6 15 7 20 3 4 -4 4 -2 1 4 -4 6 1 20 9 30 9 10 13 12 9 4 -4 -9 0 -7
8 3 9 10 24 25 34 34 10 8 12 11 4 7 -10 -5 -12 -3 -7 5 5 7 15 10 23 6 13 -4
14 -3 3 10 -11 13 -10 14 4 9 9 -4 16 -1 16 6 0 7 7 10 16 6 9 -4 13 -2 8 5
-4 7 4 21 17 31 13 11 18 16 10 12 -9 -5 -12 -3 -7 5 4 6 15 10 23 9 9 -2 18
4 20 12 4 13 3 13 -6 0 -7 -10 -11 -11 -11 -3 0 7 13 19 30 28 19 10 27 20 24
30 -6 14 10 20 42 16 6 -1 11 5 11 14 0 8 -5 11 -10 8 -6 -4 -7 -1 -3 6 5 7
15 10 23 7 8 -3 11 -2 8 4 -3 5 4 14 15 20 11 6 17 16 14 22 -5 8 -1 9 10 5
10 -4 15 -3 11 3 -3 6 -1 10 5 10 7 0 9 7 6 16 -6 15 -4 15 11 3 11 -9 14 -10
9 -1 -5 8 -1 12 11 12 15 0 16 2 3 10 -13 8 -12 10 3 10 10 0 20 7 23 15 3 8
21 24 40 35 18 12 33 24 33 28 -3 18 2 35 7 29 11 -11 106 91 98 105 -5 8 0 7
11 -2 11 -9 16 -10 11 -2 -6 10 4 16 25 14 3 -1 5 10 3 23 -1 13 1 24 4 24 20
-3 30 3 40 26 6 14 18 25 25 25 17 0 57 42 57 61 0 11 2 12 9 1 7 -11 10 -10
15 3 3 9 3 22 -1 28 -4 7 1 6 11 -2 15 -12 17 -12 14 0 -2 8 3 13 12 11 8 -2
12 -1 8 3 -7 8 51 61 63 58 4 -1 4 8 1 20 -5 19 -3 20 10 9 14 -11 16 -10 11
10 -3 13 -2 20 2 15 10 -8 45 21 45 37 0 6 12 21 28 33 45 36 69 58 57 53 -6
-3 -2 3 8 12 11 10 23 15 28 12 5 -3 6 2 3 11 -5 11 -2 14 10 9 9 -4 16 -3 15
2 -4 22 2 34 16 34 9 0 18 7 21 15 4 8 10 13 14 10 4 -3 7 3 6 12 0 9 6 18 14
20 13 4 13 3 0 -7 -13 -10 -13 -11 0 -7 8 2 14 12 12 21 -2 9 1 16 5 15 4 -1
15 -1 23 0 13 1 13 2 0 12 -12 9 -10 10 8 6 20 -5 22 -3 10 11 -7 9 -8 13 -3
10 12 -7 36 17 27 28 -4 4 1 4 10 1 11 -4 17 -2 15 5 -1 7 5 13 13 13 8 0 14
6 12 13 -1 7 5 15 13 18 8 3 12 11 8 17 -4 6 0 8 9 4 20 -7 31 3 18 17 -6 8
-3 12 11 13 12 1 17 -2 13 -10 -4 -7 -3 -9 1 -4 5 4 10 17 12 30 2 12 9 26 15
32 8 7 9 6 3 -5 -8 -13 -7 -13 10 0 10 8 20 14 22 13 11 -8 23 -1 16 10 -4 6
6 4 21 -7 16 -10 26 -14 22 -8 -3 5 3 12 14 15 11 3 18 1 15 -3 -3 -5 -1 -11
5 -15 5 -3 10 1 10 9 0 8 5 18 12 22 6 4 8 3 5 -3 -4 -6 6 -13 23 -15 16 -3
32 0 34 6 3 7 5 6 5 -1 1 -7 6 -13 12 -13 5 0 7 6 4 13 -4 6 1 3 9 -7 14 -17
16 -17 16 -4 0 9 5 20 12 24 6 4 8 3 5 -3 -4 -6 6 -13 23 -15 16 -3 32 0 34 6
3 7 5 6 5 -1 1 -7 6 -13 12 -13 5 0 7 5 3 11 -4 8 -1 8 13 1 11 -6 25 -7 33
-2 9 6 19 3 28 -8 7 -9 10 -11 6 -3 -6 11 4 13 49 9 31 -2 54 -2 52 2 -2 4 2
7 10 7 8 0 12 -4 9 -9 -3 -4 0 -8 5 -8 6 0 11 5 11 12 0 6 7 3 16 -8 8 -10 12
-13 8 -5 -6 11 4 13 49 9 31 -2 54 -2 52 2 -2 4 2 7 10 7 8 0 12 -4 9 -9 -3
-4 0 -8 5 -8 6 0 11 5 11 12 0 6 7 3 16 -8 8 -10 12 -13 8 -5 -6 11 4 13 49 9
31 -2 54 -2 52 2 -2 4 2 7 10 7 8 0 12 -4 10 -8 -8 -12 78 0 89 12 8 9 7 10
-1 5 -15 -8 -18 10 -3 19 5 3 6 16 2 28 -9 27 -8 70 3 87 5 9 4 11 -3 6 -16
-10 -15 7 1 23 10 11 10 13 0 7 -7 -4 -13 -3 -13 1 0 5 6 15 13 22 10 11 10
13 0 7 -16 -9 -17 6 -2 21 8 8 8 13 0 17 -6 4 -11 12 -11 17 0 6 4 8 8 5 5 -3
9 1 9 9 0 8 -4 12 -9 9 -4 -3 -8 -1 -8 5 0 5 4 12 10 16 5 3 6 15 1 28 -6 14
-5 30 1 41 8 14 7 17 -1 12 -14 -9 -14 7 0 21 8 8 7 13 -2 18 -8 6 -10 4 -4
-5 6 -9 4 -11 -5 -5 -10 6 -9 11 5 22 11 7 13 13 7 13 -7 0 -12 5 -12 11 0 5
4 8 8 5 5 -3 9 1 9 9 0 8 -4 12 -9 9 -4 -3 -8 -1 -8 5 0 5 4 12 10 16 5 3 6
16 2 28 -9 27 -8 70 3 87 5 8 4 11 -2 7 -12 -8 -10 54 3 74 4 8 3 9 -4 5 -15
-9 -16 6 -1 21 8 8 7 13 -2 18 -8 6 -10 4 -4 -5 6 -9 4 -11 -5 -5 -10 6 -9 11
5 22 11 7 13 13 7 13 -7 0 -12 5 -12 11 0 5 4 8 8 5 5 -3 9 1 9 9 0 8 -4 12
-9 9 -4 -3 -8 -1 -8 5 0 5 4 12 10 16 5 3 6 16 2 28 -9 27 -8 70 3 87 5 9 4
11 -3 6 -16 -10 -15 7 1 23 10 11 10 13 0 7 -7 -4 -13 -3 -13 1 0 5 6 15 13
22 10 11 10 13 0 7 -15 -9 -18 10 -3 19 35 21 -43 25 -531 25 -496 0 -529 -1
-520 -17z m270 -159 c5 4 12 2 16 -4 3 -5 11 -10 16 -10 6 0 7 5 3 11 -5 8 -1
8 14 0 26 -14 35 -14 26 0 -5 8 -2 9 12 1 11 -6 27 -7 42 -1 14 5 21 5 17 0
-3 -5 -1 -12 5 -16 5 -3 10 1 10 10 0 10 4 13 12 8 18 -11 52 -10 60 2 5 6 8
5 8 -2 0 -7 5 -13 11 -13 5 0 8 4 5 8 -3 5 1 9 9 9 8 0 12 -4 10 -8 -3 -4 13
-5 35 -2 26 4 46 1 57 -8 14 -12 16 -12 11 1 -4 12 3 15 37 15 24 0 41 -3 38
-7 -2 -5 1 -8 6 -8 6 0 11 5 11 10 0 7 6 8 17 1 10 -5 26 -5 41 0 14 5 21 5
17 0 -3 -5 -1 -12 4 -15 5 -4 11 1 13 10 3 13 6 12 24 -5 12 -11 24 -18 26
-15 3 2 5 -3 5 -10 0 -12 -5 -13 -21 -4 -20 10 -20 10 -5 -8 9 -10 20 -26 24
-34 7 -12 6 -13 -6 -3 -13 11 -15 9 -14 -6 1 -11 8 -27 16 -37 9 -11 9 -15 2
-10 -9 5 -13 -2 -13 -24 0 -17 4 -29 8 -26 5 3 9 -1 9 -8 0 -8 -7 -12 -15 -8
-11 4 -10 -2 4 -24 14 -22 15 -26 3 -17 -13 11 -15 10 -14 -6 1 -11 8 -27 16
-37 9 -11 9 -15 2 -10 -9 5 -13 -2 -13 -24 0 -17 4 -29 8 -26 5 3 9 -1 9 -8 0
-8 -7 -12 -15 -8 -11 4 -10 -2 4 -24 14 -22 15 -26 3 -17 -13 11 -15 10 -14
-6 1 -11 8 -27 16 -37 9 -11 9 -15 2 -10 -9 5 -13 -2 -13 -24 0 -17 4 -29 8
-26 5 3 9 -1 9 -8 0 -9 -7 -12 -16 -9 -13 5 -13 3 -4 -7 6 -7 9 -18 6 -25 -2
-8 1 -24 8 -37 11 -20 10 -21 -3 -11 -12 11 -14 9 -13 -6 1 -11 8 -27 16 -37
11 -15 11 -16 0 -9 -11 6 -13 2 -9 -18 6 -30 -15 -56 -28 -36 -5 8 -3 9 6 4 9
-6 11 -4 6 4 -6 9 -12 9 -25 -3 -19 -17 -36 -11 -23 9 4 6 0 3 -10 -7 -12 -13
-18 -15 -21 -6 -4 10 -8 9 -16 -2 -9 -12 -11 -13 -11 -1 0 8 -3 11 -7 8 -3 -4
-12 -2 -18 3 -9 7 -16 6 -25 -5 -10 -12 -16 -13 -27 -3 -11 9 -19 9 -33 0 -14
-9 -21 -8 -30 4 -10 11 -16 12 -26 3 -8 -6 -14 -8 -14 -3 0 5 -5 2 -10 -6 -7
-11 -10 -11 -10 -2 0 8 -5 10 -12 6 -19 -12 -60 -9 -88 6 -22 11 -23 11 -13
-1 10 -12 8 -15 -7 -15 -10 0 -16 4 -14 8 3 4 1 8 -5 8 -5 0 -13 -5 -16 -10
-5 -8 -12 -7 -22 2 -17 14 -46 20 -38 8 3 -5 1 -11 -5 -15 -5 -3 -10 -1 -10 6
0 8 -5 7 -17 -2 -11 -10 -14 -10 -9 -1 4 6 3 12 -3 12 -5 0 -13 -5 -17 -12 -5
-7 -11 -5 -21 7 -13 18 -13 18 -13 -1 0 -16 -2 -17 -10 -4 -9 13 -10 13 -10 0
0 -11 -2 -12 -8 -3 -4 7 -17 11 -27 9 -15 -3 -20 2 -21 20 -1 14 2 21 9 17 6
-3 7 -1 3 6 -14 22 -17 63 -5 55 8 -4 9 -3 5 5 -14 22 -17 63 -5 55 8 -5 9 -3
4 6 -13 21 -15 81 -2 73 6 -3 7 -1 3 5 -13 22 -15 52 -3 52 8 0 8 3 2 8 -14
10 -17 65 -4 56 8 -4 8 -1 1 12 -15 28 -15 36 0 45 7 5 8 9 2 9 -11 0 -13 64
-2 76 4 4 4 12 1 18 -16 24 -13 45 5 40 12 -4 13 -3 4 3 -17 13 -24 53 -9 53
8 0 9 3 1 8 -12 8 -12 61 0 80 6 11 12 10 27 -4 19 -17 20 -17 13 2 -7 17 -6
18 11 4 17 -14 18 -13 12 4 -6 16 -5 17 7 7 8 -7 20 -10 25 -7z m-1119 -1858
c0 -2 -7 -7 -16 -10 -8 -3 -12 -2 -9 4 6 10 25 14 25 6z m-870 -860 c0 -2 -8
-10 -17 -17 -16 -13 -17 -12 -4 4 13 16 21 21 21 13z m1528 -1121 c-3 -3 -9 2
-12 12 -6 14 -5 15 5 6 7 -7 10 -15 7 -18z m-3087 -212 c-12 -20 -14 -14 -5
12 4 9 9 14 11 11 3 -2 0 -13 -6 -23z m-672 -337 c10 -6 12 -5 7 3 -8 12 33 9
55 -5 8 -4 9 -3 5 5 -8 12 33 9 55 -5 8 -4 9 -3 5 5 -8 12 33 9 55 -5 8 -4 9
-3 5 5 -8 12 33 9 55 -5 8 -4 9 -3 5 5 -11 16 44 6 57 -11 6 -9 7 -8 3 5 -4
14 -1 16 19 13 14 -3 30 -8 36 -12 8 -4 9 -3 5 4 -5 8 0 11 16 8 13 -3 34 -5
47 -5 20 -1 22 -3 11 -17 -8 -8 -9 -14 -4 -13 21 4 28 -2 14 -11 -13 -9 -13
-11 0 -20 13 -9 7 -14 -12 -11 -4 0 -5 -6 -2 -14 4 -8 10 -13 14 -10 10 6 8
-15 -3 -32 -5 -8 -3 -13 5 -14 9 0 10 -2 1 -5 -8 -4 -9 -13 -3 -29 6 -16 6
-27 -1 -31 -8 -4 -7 -9 2 -15 12 -7 12 -9 0 -9 -10 0 -11 -3 -2 -14 9 -11 9
-16 0 -22 -8 -5 -9 -3 -4 6 6 9 4 11 -5 5 -10 -6 -9 -11 5 -22 12 -8 14 -13 6
-13 -11 0 -11 -3 0 -17 10 -11 10 -14 2 -9 -8 4 -13 1 -13 -8 0 -9 6 -16 13
-17 9 0 9 -2 -1 -6 -9 -4 -10 -8 -2 -18 8 -10 8 -15 -1 -20 -8 -6 -7 -10 2
-16 11 -7 11 -9 1 -9 -8 0 -10 -5 -6 -12 14 -23 12 -49 -4 -43 -13 5 -13 3 -1
-11 17 -21 20 -42 7 -50 -6 -4 -5 -10 3 -15 12 -7 12 -9 0 -9 -11 0 -11 -3 0
-17 12 -15 12 -16 -6 -10 -20 7 -20 7 -1 -8 11 -8 14 -15 8 -15 -7 0 -12 -7
-12 -16 0 -8 5 -12 11 -8 6 3 3 -5 -6 -20 -17 -25 -17 -26 0 -20 15 6 16 4 7
-13 -6 -11 -9 -23 -6 -26 8 -8 -52 -1 -66 8 -9 5 -11 4 -6 -3 4 -7 1 -12 -9
-12 -9 0 -14 4 -11 9 3 4 -6 6 -19 3 -15 -2 -22 -9 -18 -16 4 -6 -1 -5 -11 3
-10 8 -26 15 -37 16 -15 1 -16 -1 -7 -12 10 -12 7 -12 -15 -2 -20 9 -30 9 -41
0 -11 -9 -16 -9 -22 0 -5 8 -3 9 6 4 9 -6 11 -4 5 4 -5 9 -10 10 -18 2 -7 -7
-16 -7 -30 0 -14 8 -18 8 -13 0 4 -6 0 -11 -9 -11 -9 0 -14 4 -11 9 3 4 -6 6
-19 3 -15 -2 -22 -9 -18 -16 4 -6 -1 -5 -11 3 -10 8 -26 15 -37 16 -15 1 -16
-1 -7 -12 10 -12 7 -12 -15 -2 -20 9 -30 9 -41 0 -11 -9 -16 -9 -22 0 -5 8 -3
9 6 4 9 -6 11 -4 5 4 -5 9 -10 10 -18 2 -7 -7 -16 -7 -30 0 -14 8 -18 8 -13 0
4 -6 0 -11 -9 -11 -9 0 -14 4 -11 9 3 4 -6 6 -19 3 -15 -2 -22 -9 -18 -16 3
-6 -2 -4 -13 6 -16 14 -21 14 -32 2 -20 -22 -63 10 -54 39 9 28 8 59 -1 75 -5
8 -2 12 8 12 9 0 13 5 10 10 -4 6 -11 8 -16 5 -5 -4 -5 3 0 17 6 15 5 31 -1
42 -8 14 -7 17 1 12 17 -11 13 10 -5 28 -14 15 -14 16 2 16 13 0 14 3 4 15
-10 12 -9 15 4 15 10 0 14 5 11 10 -4 6 -11 8 -16 5 -5 -4 -5 3 0 17 6 15 5
31 -1 42 -8 14 -7 17 1 12 6 -4 11 -2 11 3 0 6 -6 11 -12 12 -7 0 -8 2 -3 5
11 5 11 96 -1 115 -4 8 -3 10 4 5 7 -4 12 -2 12 3 0 6 -6 11 -12 12 -10 0 -10
2 0 6 6 2 12 9 12 14 0 6 -3 8 -7 6 -5 -3 -8 13 -8 34 0 30 3 38 15 34 9 -3 7
1 -4 10 -12 9 -15 15 -7 15 11 0 11 3 0 17 -12 14 -12 15 0 9 10 -7 12 -4 7
12 -5 15 -2 21 11 24 36 7 228 2 242 -6z m4153 3 c15 -8 19 -8 13 0 -7 13 35
9 56 -5 8 -4 9 -3 5 5 -11 16 44 6 57 -11 6 -9 7 -8 3 5 -4 14 -1 16 19 13 14
-3 30 -8 36 -12 8 -4 9 -3 5 4 -5 8 0 11 16 8 13 -3 27 -5 31 -5 5 -1 5 -6 1
-13 -4 -7 -3 -8 5 -4 6 4 9 12 5 17 -6 11 38 5 57 -7 8 -4 9 -3 5 5 -11 16 44
6 57 -11 6 -9 7 -8 3 5 -4 14 -1 16 19 13 14 -3 30 -8 36 -12 8 -4 9 -3 5 4
-5 8 0 11 16 8 13 -3 27 -5 31 -5 5 -1 5 -6 1 -13 -4 -7 -3 -8 5 -4 6 4 9 10
7 14 -2 4 38 7 90 7 52 0 89 -2 83 -4 -6 -2 -3 -12 8 -24 14 -15 14 -19 3 -15
-11 4 -15 -1 -15 -17 0 -13 3 -21 8 -18 4 2 7 -3 7 -12 0 -10 -5 -14 -12 -9
-10 6 -10 4 0 -7 14 -16 16 -33 2 -24 -6 4 -7 -2 -1 -18 7 -18 5 -29 -7 -42
-9 -10 -11 -15 -4 -11 8 5 12 -2 12 -26 0 -19 6 -40 13 -47 7 -8 7 -11 1 -8
-7 4 -14 -3 -16 -18 -3 -13 -2 -22 2 -20 4 3 10 -4 13 -16 4 -15 2 -18 -7 -10
-18 15 -14 -22 5 -45 9 -11 9 -15 2 -10 -9 5 -13 -2 -13 -24 0 -17 4 -29 8
-26 5 3 9 -1 9 -8 0 -8 -7 -12 -15 -8 -11 4 -10 -2 4 -24 14 -22 15 -26 3 -17
-13 11 -15 10 -14 -6 1 -11 8 -27 16 -37 9 -11 9 -15 2 -10 -9 5 -13 -2 -13
-24 0 -17 4 -29 8 -26 5 3 9 -1 9 -8 0 -9 -7 -12 -16 -8 -13 4 -14 3 -5 -9 18
-23 26 -51 12 -43 -7 5 -9 2 -5 -9 4 -12 2 -14 -10 -10 -13 5 -15 2 -9 -12 7
-18 6 -18 -15 1 -12 10 -19 14 -16 8 9 -15 -20 -27 -29 -12 -5 7 -2 8 6 3 9
-6 11 -4 5 4 -5 9 -10 10 -18 2 -7 -7 -16 -7 -30 0 -14 8 -18 8 -13 0 4 -6 0
-11 -9 -11 -9 0 -14 4 -11 9 3 4 -6 6 -19 3 -14 -2 -22 -9 -19 -14 4 -6 -6 -2
-22 8 -18 12 -25 14 -20 5 6 -9 5 -12 -5 -9 -8 3 -13 11 -11 17 3 16 -3 14
-19 -6 -12 -14 -12 -16 0 -8 9 5 12 4 7 -3 -5 -8 -15 -8 -33 -1 -17 6 -30 6
-36 0 -13 -13 -39 -2 -30 13 3 6 -3 3 -14 -7 -16 -14 -23 -15 -29 -6 -5 8 -3
10 6 4 9 -6 11 -4 5 4 -5 9 -10 10 -18 2 -7 -7 -16 -7 -30 0 -14 8 -18 8 -13
0 4 -6 0 -11 -9 -11 -9 0 -14 4 -11 9 3 4 -6 6 -19 3 -14 -2 -22 -9 -19 -14 4
-6 -6 -2 -22 8 -15 11 -25 14 -21 7 4 -6 1 -13 -5 -16 -16 -5 -39 3 -34 12 3
4 -4 7 -15 7 -13 0 -18 -5 -14 -15 4 -10 -1 -9 -16 5 -12 10 -19 14 -16 8 4
-7 0 -15 -9 -18 -8 -3 -12 -2 -9 4 3 6 -5 10 -18 10 -14 0 -24 6 -24 15 0 12
3 12 16 2 14 -11 14 -10 1 7 -11 14 -14 54 -15 186 0 148 2 167 15 157 13 -10
13 -10 2 5 -18 23 -27 72 -11 62 8 -4 9 -3 5 5 -14 22 -17 63 -5 55 8 -4 9 -3
5 4 -4 7 -9 21 -11 33 -3 16 0 19 13 15 15 -5 15 -4 2 6 -17 15 -25 72 -9 62
8 -4 8 0 2 12 -8 15 -10 70 -4 82 2 4 13 2 33 -9z"/>
<path d="M5520 6140 c-9 -6 -10 -10 -3 -10 6 0 15 5 18 10 8 12 4 12 -15 0z"/>
<path d="M1075 1070 c3 -5 8 -10 11 -10 2 0 4 5 4 10 0 6 -5 10 -11 10 -5 0
-7 -4 -4 -10z"/>
<path d="M5042 5194 c-7 -8 -8 -14 -3 -14 10 0 25 19 20 25 -2 1 -10 -3 -17
-11z"/>
<path d="M3991 4140 c-13 -11 -19 -20 -14 -20 6 0 18 9 28 20 23 25 17 25 -14
0z"/>
<path d="M2603 2755 c0 -8 4 -12 9 -9 5 3 6 10 3 15 -9 13 -12 11 -12 -6z"/>
<path d="M2444 2602 c3 -5 0 -13 -6 -15 -9 -4 -10 -6 -1 -6 17 -1 25 16 12 25
-7 4 -9 3 -5 -4z"/>
<path d="M5105 2280 c3 -5 8 -10 11 -10 2 0 4 5 4 10 0 6 -5 10 -11 10 -5 0
-7 -4 -4 -10z"/>
<path d="M5440 1966 c0 -2 8 -10 18 -17 15 -13 16 -12 3 4 -13 16 -21 21 -21
13z"/>
</g>
</svg>
